<svg width="173" height="97" viewBox="0 0 173 97" fill="none" xmlns="http://www.w3.org/2000/svg">
<path opacity="0.25" d="M103.035 137C152.14 137 191.947 126.922 191.947 114.49C191.947 102.058 152.14 91.9797 103.035 91.9797C53.931 91.9797 14.1241 102.058 14.1241 114.49C14.1241 126.922 53.931 137 103.035 137Z" fill="#042030"/>
<path d="M172.667 5.85709L103.035 31.7476L33.3329 5.85709L0 58.5601L103.035 96.8965L206 58.5601L172.667 5.85709Z" fill="#4E2999"/>
<path opacity="0.45" d="M12.1467 56.409L97.5975 91.9797L68.2194 60.3271C68.2194 60.3271 19.9856 47.6507 12.1467 56.409Z" fill="#240F4F"/>
<path opacity="0.45" d="M193.924 56.409L108.473 91.9797L137.851 60.3271C137.781 60.3271 186.014 47.6507 193.924 56.409Z" fill="#240F4F"/>
<path d="M103.035 96.8965L0 58.5601V63.5538L103.035 101.89L206 63.5538V58.5601L103.035 96.8965Z" fill="#994EF8"/>
<path d="M48.1632 119.945L60.0981 85.9103L98.5156 100.2L48.1632 119.945Z" fill="#3B1E77"/>
<path opacity="0.45" d="M51.4824 110.111L98.5156 100.2L60.0981 85.9103L51.4824 110.111Z" fill="#3B1E77"/>
<path d="M157.907 119.945L145.902 85.9103L107.484 100.2L157.907 119.945Z" fill="#3B1E77"/>
<path opacity="0.45" d="M154.518 110.111L107.484 100.2L145.902 85.9103L154.518 110.111Z" fill="#3B1E77"/>
<path d="M103.035 104.963C105.102 104.963 106.778 103.14 106.778 100.892C106.778 98.6427 105.102 96.8197 103.035 96.8197C100.968 96.8197 99.2924 98.6427 99.2924 100.892C99.2924 103.14 100.968 104.963 103.035 104.963Z" fill="white" fill-opacity="0.5"/>
<path d="M169.701 5.85709L103.035 41.9656L36.3696 5.85709C33.3329 10.2362 8.89819 54.5651 8.89819 54.5651C9.18068 54.5651 9.39254 54.6419 9.67502 54.6419C70.9736 61.3259 87.9932 82.2995 93.6428 87.3701C99.2924 92.5174 103.106 91.9797 103.106 91.9797C103.106 91.9797 106.919 92.5174 112.569 87.3701C118.219 82.2995 135.238 61.3259 196.537 54.6419C196.819 54.6419 197.031 54.5651 197.314 54.5651C197.172 54.5651 172.667 10.313 169.701 5.85709Z" fill="#F5B304"/>
<path d="M197.172 54.5651C196.89 54.5651 196.678 54.642 196.396 54.642C135.097 61.3259 118.077 82.2995 112.428 87.3701C106.778 92.5174 102.965 91.9797 102.965 91.9797C102.965 91.9797 99.1512 92.5174 93.5016 87.3701C87.8519 82.2995 70.8324 61.3259 9.53376 54.642C9.25128 54.642 9.03942 54.5651 8.75694 54.5651C8.2626 55.4102 8.75694 56.0248 8.75694 56.0248C70.6911 62.5551 87.1457 83.6056 92.7953 88.7529C98.445 93.8235 102.894 93.4394 102.894 93.4394C102.894 93.4394 107.343 93.8235 112.993 88.7529C118.642 83.6824 135.097 62.6319 197.031 56.0248C197.172 56.0248 197.667 55.4102 197.172 54.5651Z" fill="#994EF8"/>
<path d="M167.159 1.63162C133.049 -7.28026 102.965 23.2199 102.965 23.2199C102.965 23.2199 72.8804 -7.28026 38.7707 1.63162C38.7707 1.63162 29.0957 17.7652 15.7484 45.1923C15.7484 45.1923 82.9085 53.4127 102.965 84.0665C123.021 53.4127 190.181 45.1923 190.181 45.1923C176.834 17.7652 167.159 1.63162 167.159 1.63162Z" fill="#F5EFFB"/>
<path d="M190.181 45.1923C190.181 45.1923 123.021 53.4127 102.965 84.0665C82.9791 53.4127 15.819 45.1923 15.819 45.1923C15.819 45.1923 15.819 47.6507 12.0761 52.4908C12.0761 52.4908 73.0216 57.254 95.1964 84.7579C100.422 91.2114 102.965 90.4431 102.965 90.4431C102.965 90.4431 105.578 91.2114 110.733 84.7579C132.837 57.254 193.853 52.4908 193.853 52.4908C190.181 47.5739 190.181 45.1923 190.181 45.1923Z" fill="#DFCBF4"/>
<path d="M163.345 4.85834C163.345 4.85834 137.851 -2.20972 102.965 27.2149C68.1488 -2.13289 42.5842 4.85834 42.5842 4.85834L25.3528 41.2741C77.7532 45.1923 102.965 74.0022 102.965 74.0022C102.965 74.0022 128.176 45.1923 180.577 41.2741L163.345 4.85834ZM103.035 70.545C103.035 70.545 79.4481 44.2704 29.4488 39.123L43.926 6.39487C43.926 6.39487 68.9963 1.09383 103.035 28.9051C137.074 1.09383 162.145 6.39487 162.145 6.39487L176.622 39.123C126.623 44.2704 103.035 70.545 103.035 70.545Z" fill="#863ED5"/>
<path opacity="0.2" d="M109.462 54.6372C118.878 47.0826 148.303 30.3647 168.077 32.6695" stroke="#863ED5" stroke-width="3" stroke-linecap="round"/>
<path opacity="0.2" d="M109.462 33.4378C117.819 26.3195 139.546 12.3726 159.602 13.5308" stroke="#863ED5" stroke-width="3" stroke-linecap="round"/>
<path opacity="0.2" d="M109.462 44.1935C118.525 36.5277 142.088 21.5079 163.84 22.7552" stroke="#863ED5" stroke-width="3" stroke-linecap="round"/>
<path opacity="0.2" d="M97.4563 54.6372C88.0402 47.0826 58.615 30.3647 38.8413 32.6695" stroke="#863ED5" stroke-width="3" stroke-linecap="round"/>
<path opacity="0.2" d="M97.4563 33.4378C89.0995 26.3195 67.372 12.3726 47.3157 13.5308" stroke="#863ED5" stroke-width="3" stroke-linecap="round"/>
<path opacity="0.2" d="M97.4563 44.1935C88.3933 36.5277 64.8296 21.5079 43.0785 22.7552" stroke="#863ED5" stroke-width="3" stroke-linecap="round"/>
<path d="M103.035 23.2199C103.035 23.2199 103.742 20.5309 105.083 21.2992C105.083 21.2992 104.236 64.8599 105.648 81.8385C106.001 86.064 109.391 91.826 110.733 93.9771H108.967L108.473 95.7441C108.473 95.7441 103.247 86.1408 103.035 82.3763C101.976 65.4745 102.541 27.2917 103.035 23.2199Z" fill="#54DAF5"/>
</svg>
